<svg width="32" height="32" viewBox="0 0 32 32" fill="none" xmlns="http://www.w3.org/2000/svg">
<path d="M10.667 14.6667H22.8471C24.8005 14.6667 25.7771 14.6667 26.3669 15.6471C26.9566 16.6275 26.6093 17.2525 25.9146 18.5026C24.5359 20.9841 21.861 22.6667 18.7871 22.6667C16.7278 22.6667 14.8474 21.9114 13.4161 20.6667" stroke="#141B34" stroke-width="1.5" stroke-linecap="round" stroke-linejoin="round"/>
<path d="M10.6663 14.6667V5.33341C10.6663 4.07633 10.6663 3.4478 10.2758 3.05727C9.88529 2.66675 9.25675 2.66675 7.99967 2.66675C6.74259 2.66675 6.11406 2.66675 5.72353 3.05727C5.33301 3.4478 5.33301 4.07633 5.33301 5.33341V14.6667C5.33301 15.9238 5.33301 16.5523 5.72353 16.9429C6.11406 17.3334 6.74259 17.3334 7.99967 17.3334C9.25675 17.3334 9.88529 17.3334 10.2758 16.9429C10.6663 16.5523 10.6663 15.9238 10.6663 14.6667Z" stroke="#141B34" stroke-width="1.5" stroke-linecap="round" stroke-linejoin="round"/>
<path d="M9.33301 9.33325H13.333" stroke="#141B34" stroke-width="1.5" stroke-linecap="round" stroke-linejoin="round"/>
<path d="M21.333 22.6666C19.9997 23.9999 21.333 27.9999 23.9991 29.3333H5.33301C6.66634 27.9999 8.93301 23.7333 7.33301 17.3333" stroke="#141B34" stroke-width="1.5" stroke-linecap="round" stroke-linejoin="round"/>
</svg>
