<svg width="32" height="32" viewBox="0 0 32 32" fill="none" xmlns="http://www.w3.org/2000/svg">
<path d="M29.3337 23.3334H2.66699" stroke="#141B34" stroke-width="1.5" stroke-linecap="round" stroke-linejoin="round"/>
<path d="M29.3337 28V21.3333C29.3337 18.8192 29.3337 17.5621 28.5526 16.7811C27.7715 16 26.5145 16 24.0003 16H8.00033C5.48617 16 4.22909 16 3.44805 16.7811C2.66699 17.5621 2.66699 18.8192 2.66699 21.3333V28" stroke="#141B34" stroke-width="1.5" stroke-linecap="round" stroke-linejoin="round"/>
<path d="M14.6667 16V13.6179C14.6667 13.1103 14.5904 12.9405 14.1996 12.7405C13.386 12.3239 12.3982 12 11.3333 12C10.2685 12 9.28073 12.3239 8.467 12.7405C8.07628 12.9405 8 13.1103 8 13.6179V16" stroke="#141B34" stroke-width="1.5" stroke-linecap="round"/>
<path d="M23.9997 16V13.6179C23.9997 13.1103 23.9234 12.9405 23.5326 12.7405C22.719 12.3239 21.7313 12 20.6663 12C19.6014 12 18.6137 12.3239 17.8001 12.7405C17.4093 12.9405 17.333 13.1103 17.333 13.6179V16" stroke="#141B34" stroke-width="1.5" stroke-linecap="round"/>
<path d="M28 16V9.81409C28 8.89191 28 8.43081 27.7439 7.99537C27.4876 7.55993 27.1227 7.33455 26.3925 6.88377C23.4492 5.06637 19.8657 4 16 4C12.1342 4 8.55085 5.06637 5.60744 6.88377C4.87739 7.33455 4.51236 7.55993 4.25617 7.99537C4 8.43081 4 8.89191 4 9.81409V16" stroke="#141B34" stroke-width="1.5" stroke-linecap="round"/>
</svg>
