<svg width="32" height="32" viewBox="0 0 32 32" fill="none" xmlns="http://www.w3.org/2000/svg">
<path d="M5.03715 15.923C3.77312 13.7189 3.16279 11.9191 2.79478 10.0948C2.25048 7.39661 3.49607 4.76092 5.5595 3.07913C6.43159 2.36835 7.4313 2.6112 7.94699 3.53637L9.11123 5.62505C10.034 7.2806 10.4954 8.10836 10.4039 8.98596C10.3124 9.86356 9.69015 10.5783 8.44562 12.0079L5.03715 15.923ZM5.03715 15.923C7.59567 20.3842 11.6108 24.4016 16.0771 26.963M16.0771 26.963C18.2813 28.227 20.081 28.8374 21.9054 29.2054C24.6035 29.7497 27.2393 28.5041 28.921 26.4406C29.6318 25.5686 29.389 24.5689 28.4638 24.0532L26.3751 22.8889C24.7195 21.9661 23.8918 21.5048 23.0142 21.5962C22.1366 21.6877 21.4218 22.31 19.9923 23.5545L16.0771 26.963Z" stroke="#141B34" stroke-width="1.5" stroke-linejoin="round"/>
<path d="M18.667 4V7.73333M25.2673 6.73437L22.6274 9.37424M28.0003 13.3333H24.267" stroke="#141B34" stroke-width="1.5" stroke-linecap="round"/>
</svg>
