<svg width="32" height="32" viewBox="0 0 32 32" fill="none" xmlns="http://www.w3.org/2000/svg">
<path d="M12.0003 23.9999C12.0003 25.4727 10.8064 26.6666 9.33366 26.6666C7.8609 26.6666 6.66699 25.4727 6.66699 23.9999C6.66699 22.5271 7.8609 21.3333 9.33366 21.3333C10.8064 21.3333 12.0003 22.5271 12.0003 23.9999Z" stroke="#141B34" stroke-width="1.5"/>
<path d="M25.3333 23.9999C25.3333 25.4727 24.1395 26.6666 22.6667 26.6666C21.1939 26.6666 20 25.4727 20 23.9999C20 22.5271 21.1939 21.3333 22.6667 21.3333C24.1395 21.3333 25.3333 22.5271 25.3333 23.9999Z" stroke="#141B34" stroke-width="1.5"/>
<path d="M2.66699 14.6667H24.0003" stroke="#141B34" stroke-width="1.5" stroke-linecap="round"/>
<path d="M25.3337 23C24.7814 23 24.3337 23.4477 24.3337 24C24.3337 24.5523 24.7814 25 25.3337 25V23ZM2.667 7C2.11472 7 1.667 7.44772 1.667 8C1.667 8.55228 2.11472 9 2.667 9V7ZM6.04077 8.70711C6.43129 8.31659 6.43129 7.68341 6.04077 7.29289C5.65025 6.90237 5.01708 6.90237 4.62656 7.29289L6.04077 8.70711ZM6.43725 24.9732C6.97476 25.1001 7.51336 24.7672 7.64025 24.2297C7.76713 23.6923 7.43426 23.1536 6.89674 23.0268L6.43725 24.9732ZM12.0003 23C11.4481 23 11.0003 23.4477 11.0003 24C11.0003 24.5523 11.4481 25 12.0003 25V23ZM20.0003 25C20.5526 25 21.0003 24.5523 21.0003 24C21.0003 23.4477 20.5526 23 20.0003 23V25ZM25.3337 25H26.667V23H25.3337V25ZM30.3337 21.3333V20.3729H28.3337V21.3333H30.3337ZM15.1685 7H2.667V9H15.1685V7ZM15.1685 9C16.2069 9 16.9193 9.00096 17.4822 9.05236C18.025 9.10193 18.3573 9.19372 18.6365 9.33907L19.5601 7.56511C18.971 7.25836 18.3589 7.12411 17.6641 7.06065C16.9894 6.99904 16.1711 7 15.1685 7V9ZM30.3337 20.3729C30.3337 19.1129 30.3497 18.2157 30.0462 17.4247L28.1789 18.1409C28.3177 18.5028 28.3337 18.948 28.3337 20.3729H30.3337ZM26.667 25C27.2673 25 27.8181 25.0021 28.2633 24.9423C28.7373 24.8785 29.2382 24.7287 29.6502 24.3165L28.2361 22.9024C28.2354 22.9029 28.2355 22.9028 28.2361 22.9024C28.2359 22.9025 28.2353 22.9028 28.2327 22.9041C28.2302 22.9055 28.2258 22.9077 28.219 22.9104C28.1901 22.9224 28.1255 22.9428 27.9967 22.9601C27.7158 22.9979 27.3238 23 26.667 23V25ZM28.3337 21.3333C28.3337 21.9901 28.3315 22.3821 28.2938 22.6631C28.2765 22.7919 28.2561 22.8564 28.2441 22.8853C28.2414 22.8921 28.2391 22.8965 28.2378 22.8991C28.2365 22.9016 28.2362 22.9023 28.2361 22.9024C28.2365 22.9019 28.2366 22.9017 28.2361 22.9024L29.6502 24.3165C30.0623 23.9045 30.2122 23.4036 30.2759 22.9296C30.3358 22.4844 30.3337 21.9336 30.3337 21.3333H28.3337ZM24.4598 13.4931C23.7201 12.7637 23.1941 11.7733 22.4594 10.5976C21.7751 9.50273 20.9145 8.27027 19.5601 7.56511L18.6365 9.33907C19.4702 9.77317 20.0897 10.5795 20.7633 11.6575C21.3865 12.6547 22.0961 13.9712 23.0555 14.9172L24.4598 13.4931ZM30.0462 17.4247C29.4402 15.8449 28.1371 15.2028 27.0601 14.7744C26.4693 14.5395 26.0295 14.3973 25.5411 14.1788C25.089 13.9765 24.7335 13.7631 24.4598 13.4931L23.0555 14.9172C23.5685 15.4229 24.1642 15.7537 24.7242 16.0044C25.2481 16.2388 25.8814 16.458 26.3211 16.6329C27.3051 17.0243 27.8929 17.3952 28.1789 18.1409L30.0462 17.4247ZM4.62656 7.29289C3.79593 8.12352 3.0686 9.63664 2.564 10.9822C2.30205 11.6808 2.08196 12.3837 1.92603 13.0075C1.77513 13.6111 1.667 14.2073 1.667 14.6667H3.667C3.667 14.4593 3.72553 14.0556 3.86631 13.4925C4.00204 12.9496 4.19861 12.3192 4.43667 11.6845C4.93207 10.3634 5.53807 9.20981 6.04077 8.70711L4.62656 7.29289ZM1.667 14.6667V21.0185H3.667V14.6667H1.667ZM1.667 21.0185C1.667 21.3989 1.66577 21.7599 1.6972 22.0639C1.731 22.3908 1.80869 22.7347 2.01548 23.0693L3.71678 22.0179C3.71655 22.0175 3.7164 22.0172 3.71589 22.0161C3.71533 22.0148 3.71337 22.0101 3.71055 22.0005C3.70451 21.98 3.69482 21.9379 3.68658 21.8581C3.66823 21.6805 3.667 21.44 3.667 21.0185H1.667ZM6.89674 23.0268C6.58444 22.9531 6.20949 22.8908 5.87596 22.8313C5.52363 22.7684 5.18234 22.7032 4.86285 22.6176C4.16803 22.4316 3.83756 22.2133 3.71678 22.0179L2.01548 23.0693C2.57032 23.9671 3.58595 24.3461 4.34548 24.5496C4.75317 24.6588 5.16613 24.7363 5.52483 24.8003C5.90235 24.8676 6.19521 24.9161 6.43725 24.9732L6.89674 23.0268ZM12.0003 25H20.0003V23H12.0003V25Z" fill="#141B34"/>
<path d="M12 14.6667V8" stroke="#141B34" stroke-width="1.5" stroke-linecap="round"/>
</svg>
