<svg width="33" height="33" viewBox="0 0 33 33" fill="none" xmlns="http://www.w3.org/2000/svg">
<path d="M15.8337 4.50525C15.0847 4.5164 14.3389 4.54634 13.6062 4.59505C8.02884 4.9658 3.5862 9.47145 3.22064 15.1279C3.14911 16.2348 3.14911 17.3812 3.22064 18.4882C3.35379 20.5483 4.2649 22.4558 5.33754 24.0664C5.96034 25.194 5.54931 26.6014 4.9006 27.8307C4.43287 28.7171 4.199 29.1603 4.38678 29.4804C4.57456 29.8006 4.994 29.8108 5.8329 29.8312C7.49188 29.8716 8.61056 29.4012 9.49856 28.7464C10.0022 28.3751 10.254 28.1894 10.4276 28.168C10.6011 28.1467 10.9427 28.2874 11.6257 28.5687C12.2395 28.8215 12.9523 28.9775 13.6062 29.021C15.5051 29.1472 17.4917 29.1475 19.3945 29.021C24.9718 28.6503 29.4145 24.1446 29.7801 18.4882C29.8515 17.3812 29.8515 16.2348 29.7801 15.1279C29.7054 13.9734 29.461 12.8669 29.0717 11.8336" stroke="white" stroke-width="1.5" stroke-linecap="round" stroke-linejoin="round"/>
<path d="M19.167 8.49996C19.167 8.49996 20.5003 8.49996 21.8337 11.1666C21.8337 11.1666 26.069 4.49996 29.8337 3.16663" stroke="white" stroke-width="1.5" stroke-linecap="round" stroke-linejoin="round"/>
<path d="M11.833 20.5H21.1663M11.833 13.8334H16.4997" stroke="white" stroke-width="1.5" stroke-linecap="round" stroke-linejoin="round"/>
</svg>
