<svg width="32" height="32" viewBox="0 0 32 32" fill="none" xmlns="http://www.w3.org/2000/svg">
<path d="M19.3337 12.0001C19.3337 13.841 17.8413 15.3334 16.0003 15.3334C14.1594 15.3334 12.667 13.841 12.667 12.0001C12.667 10.1591 14.1594 8.66675 16.0003 8.66675C17.8413 8.66675 19.3337 10.1591 19.3337 12.0001Z" stroke="#53A0B1" stroke-width="1.5"/>
<path d="M17.6769 23.3249C17.2271 23.7579 16.6261 24.0001 16.0006 24.0001C15.375 24.0001 14.7739 23.7579 14.3242 23.3249C10.2061 19.3345 4.68725 14.8767 7.37861 8.40505C8.83379 4.90584 12.3269 2.66675 16.0006 2.66675C19.6742 2.66675 23.1673 4.90585 24.6225 8.40505C27.3105 14.8686 21.8051 19.3482 17.6769 23.3249Z" stroke="#53A0B1" stroke-width="1.5"/>
<path d="M24 26.6667C24 28.1395 20.4183 29.3334 16 29.3334C11.5817 29.3334 8 28.1395 8 26.6667" stroke="#53A0B1" stroke-width="1.5" stroke-linecap="round"/>
</svg>
