<svg width="33" height="33" viewBox="0 0 33 33" fill="none" xmlns="http://www.w3.org/2000/svg">
<path d="M17.167 29.8333H9.28815C7.22765 29.8333 5.58874 28.8307 4.11721 27.4288C1.10481 24.5588 6.05073 22.2653 7.93709 21.1421C10.9363 19.3563 14.4823 18.7812 17.8337 19.4171" stroke="white" stroke-width="1.5" stroke-linecap="round" stroke-linejoin="round"/>
<path d="M21.167 9.16663C21.167 12.4803 18.4807 15.1666 15.167 15.1666C11.8533 15.1666 9.16699 12.4803 9.16699 9.16663C9.16699 5.85292 11.8533 3.16663 15.167 3.16663C18.4807 3.16663 21.167 5.85292 21.167 9.16663Z" stroke="white" stroke-width="1.5"/>
<path d="M25.4218 19.9369L26.3603 21.8296C26.4883 22.0929 26.8295 22.3457 27.1175 22.3941L28.8187 22.6791C29.9066 22.8619 30.1626 23.6576 29.3786 24.4427L28.0561 25.7761C27.8322 26.002 27.7095 26.4375 27.7789 26.7493L28.1574 28.4C28.4561 29.7065 27.7682 30.212 26.6217 29.5291L25.0271 28.5775C24.7391 28.4053 24.2646 28.4053 23.9713 28.5775L22.3767 29.5291C21.2355 30.212 20.5423 29.7012 20.8409 28.4L21.2195 26.7493C21.2889 26.4375 21.1662 26.002 20.9422 25.7761L19.6197 24.4427C18.8411 23.6576 19.0918 22.8619 20.1797 22.6791L21.8807 22.3941C22.1634 22.3457 22.5047 22.0929 22.6327 21.8296L23.5713 19.9369C24.0833 18.9099 24.9151 18.9099 25.4218 19.9369Z" stroke="white" stroke-width="1.5" stroke-linecap="round" stroke-linejoin="round"/>
</svg>
