<svg width="33" height="33" viewBox="0 0 33 33" fill="none" xmlns="http://www.w3.org/2000/svg">
<path d="M21.833 23.1667L22.1129 23.4465C22.6045 23.9381 22.8503 24.184 23.1479 24.1675C23.4455 24.1511 23.6626 23.8795 24.0969 23.3365L25.8325 21.1667M17.833 21.1057V21.6204C17.833 23.2229 17.833 24.0241 18.0309 24.7575C18.2751 25.6631 18.7385 26.4981 19.3818 27.1929C19.9026 27.7555 20.5901 28.1935 21.9647 29.0695C22.5802 29.4616 22.8879 29.6577 23.215 29.7489C23.619 29.8615 24.047 29.8615 24.451 29.7489C24.7781 29.6577 25.0858 29.4616 25.7013 29.0695C27.0759 28.1935 27.7634 27.7555 28.2842 27.1929C28.9275 26.4981 29.3909 25.6631 29.6351 24.7575C29.833 24.0241 29.833 23.2229 29.833 21.6204V21.1057C29.833 20.1079 29.833 19.6089 29.6439 19.1876C29.5273 18.9277 29.3602 18.6924 29.1519 18.4947C28.8142 18.174 28.3357 17.9988 27.3783 17.6484L25.413 16.9291C24.6317 16.6431 24.241 16.5 23.833 16.5C23.425 16.5 23.0343 16.6431 22.253 16.9291L20.2877 17.6484C19.3303 17.9988 18.8518 18.174 18.5141 18.4947C18.3058 18.6924 18.1387 18.9277 18.0221 19.1876C17.833 19.6089 17.833 20.1079 17.833 21.1057Z" stroke="white" stroke-width="1.5" stroke-linecap="round" stroke-linejoin="round"/>
<path d="M22.0619 11.0454V13.1666M22.0619 11.0454C22.0619 10.0413 22.9063 9.22724 23.9478 9.22724C24.9894 9.22724 25.8337 10.0413 25.8337 11.0454V13.1666M22.0619 11.0454V7.40907C22.0619 6.40491 21.2177 5.59088 20.1761 5.59088C19.1346 5.59088 18.2902 6.40491 18.2902 7.40907M18.2902 7.40907V13.1666M18.2902 7.40907V4.98481C18.2902 3.98065 17.4459 3.16663 16.4043 3.16663C15.3629 3.16663 14.5185 3.98065 14.5185 4.98481V8.62119M14.5185 8.62119C14.5185 7.61703 13.6742 6.803 12.6327 6.803C11.5911 6.803 10.7468 7.61703 10.7468 8.62119V17.3506C10.7468 17.9053 10.0368 18.1685 9.65019 17.7572L6.59515 14.5057C6.0757 13.8922 5.19777 13.6846 4.44283 13.9965C3.09839 14.552 2.78297 16.5137 3.65679 17.6445C5.15202 19.5797 6.68403 22.222 7.92083 24.5517C9.59931 27.7136 12.9121 29.8333 16.5962 29.8333M14.5185 8.62119V13.1666" stroke="white" stroke-width="1.5" stroke-linecap="round" stroke-linejoin="round"/>
</svg>
