<svg width="33" height="33" viewBox="0 0 33 33" fill="none" xmlns="http://www.w3.org/2000/svg">
<path d="M17.167 3.183C16.9462 3.17213 16.7239 3.16663 16.5003 3.16663C9.13653 3.16663 3.16699 9.13616 3.16699 16.5C3.16699 23.8637 9.13653 29.8333 16.5003 29.8333C23.8641 29.8333 29.8337 23.8637 29.8337 16.5C29.8337 15.349 29.6878 14.232 29.4137 13.1666" stroke="white" stroke-width="1.5" stroke-linecap="round" stroke-linejoin="round"/>
<path d="M11.167 20.5C12.3832 22.1192 14.3194 23.1667 16.5003 23.1667C18.6813 23.1667 20.6175 22.1192 21.8337 20.5" stroke="white" stroke-width="1.5" stroke-linecap="round" stroke-linejoin="round"/>
<path d="M13.8333 13.1666H12.1095C11.5058 13.1666 10.9269 13.4064 10.5 13.8333M19.1667 13.1666H20.8905C21.4941 13.1666 22.0732 13.4064 22.5 13.8333" stroke="white" stroke-width="1.5" stroke-linecap="round" stroke-linejoin="round"/>
<path d="M21.6842 3.60822C22.9356 2.87715 24.0279 3.17177 24.684 3.64105C24.9531 3.83347 25.0875 3.92969 25.1667 3.92969C25.2459 3.92969 25.3803 3.83347 25.6494 3.64105C26.3055 3.17177 27.3978 2.87715 28.6492 3.60822C30.2916 4.56769 30.6632 7.73298 26.875 10.4034C26.1534 10.9121 25.7926 11.1664 25.1667 11.1664C24.5408 11.1664 24.18 10.9121 23.4584 10.4034C19.6702 7.73298 20.0418 4.56769 21.6842 3.60822Z" stroke="white" stroke-width="1.5" stroke-linecap="round"/>
</svg>
