<svg width="32" height="32" viewBox="0 0 32 32" fill="none" xmlns="http://www.w3.org/2000/svg">
<path d="M18.667 18.6666L22.0003 22" stroke="white" stroke-width="1.5" stroke-linejoin="round"/>
<path d="M21.9107 24.7003C21.1404 23.93 21.1404 22.6812 21.9107 21.9111C22.6808 21.1408 23.9296 21.1408 24.6999 21.9111L28.7552 25.9664C29.5255 26.7367 29.5255 27.9855 28.7552 28.7556C27.9851 29.5259 26.7363 29.5259 25.966 28.7556L21.9107 24.7003Z" stroke="white" stroke-width="1.5" stroke-linecap="round"/>
<path d="M21.3337 12C21.3337 6.84531 17.155 2.66663 12.0003 2.66663C6.84567 2.66663 2.66699 6.84531 2.66699 12C2.66699 17.1546 6.84567 21.3333 12.0003 21.3333C17.155 21.3333 21.3337 17.1546 21.3337 12Z" stroke="white" stroke-width="1.5" stroke-linejoin="round"/>
</svg>
