<svg width="32" height="32" viewBox="0 0 32 32" fill="none" xmlns="http://www.w3.org/2000/svg">
<path d="M2.66699 14.6668C2.66699 10.2671 2.66699 8.06716 4.03383 6.70034C5.40066 5.3335 7.60055 5.3335 12.0003 5.3335H13.3337C17.7334 5.3335 19.9333 5.3335 21.3002 6.70034C22.667 8.06716 22.667 10.2671 22.667 14.6668V17.3335C22.667 21.7332 22.667 23.9331 21.3002 25.3C19.9333 26.6668 17.7334 26.6668 13.3337 26.6668H12.0003C7.60055 26.6668 5.40066 26.6668 4.03383 25.3C2.66699 23.9331 2.66699 21.7332 2.66699 17.3335V14.6668Z" stroke="#141B34" stroke-width="1.5"/>
<path d="M22.667 11.8743L22.8349 11.7358C25.6559 9.40815 27.0665 8.24432 28.2001 8.80627C29.3337 9.36821 29.3337 11.2312 29.3337 14.9573V17.0424C29.3337 20.7685 29.3337 22.6314 28.2001 23.1934C27.0665 23.7553 25.6559 22.5916 22.8349 20.2638L22.667 20.1253" stroke="#141B34" stroke-width="1.5" stroke-linecap="round"/>
<path d="M15.333 14.6665C16.4376 14.6665 17.333 13.7711 17.333 12.6665C17.333 11.5619 16.4376 10.6665 15.333 10.6665C14.2284 10.6665 13.333 11.5619 13.333 12.6665C13.333 13.7711 14.2284 14.6665 15.333 14.6665Z" stroke="#141B34" stroke-width="1.5"/>
</svg>
