<svg width="33" height="33" viewBox="0 0 33 33" fill="none" xmlns="http://www.w3.org/2000/svg">
<path d="M29.8337 15.9221C29.8337 22.9664 23.8633 28.6777 16.5003 28.6777C15.6346 28.6789 14.7713 28.5988 13.9209 28.4392C13.3088 28.3241 13.0027 28.2666 12.789 28.2993C12.5754 28.332 12.2726 28.4929 11.667 28.815C9.95385 29.7261 7.95626 30.0478 6.03514 29.6905C6.76531 28.7924 7.26399 27.7148 7.48403 26.5596C7.61737 25.8529 7.28699 25.1665 6.79218 24.664C4.54477 22.3818 3.16699 19.3066 3.16699 15.9221C3.16699 8.87793 9.13736 3.1665 16.5003 3.1665C23.8633 3.1665 29.8337 8.87793 29.8337 15.9221Z" stroke="#141B34" stroke-width="1.5" stroke-linejoin="round"/>
<path d="M16.4943 16.5H16.5063M21.8217 16.5H21.8337M11.167 16.5H11.179" stroke="#141B34" stroke-width="2" stroke-linecap="round" stroke-linejoin="round"/>
</svg>
