<svg width="32" height="33" viewBox="0 0 32 33" fill="none" xmlns="http://www.w3.org/2000/svg">
<path d="M3.3335 16.5C3.3335 10.5289 3.3335 7.5433 5.18848 5.6883C7.04348 3.83331 10.029 3.83331 16.0002 3.83331C21.9712 3.83331 24.9568 3.83331 26.8119 5.6883C28.6668 7.5433 28.6668 10.5289 28.6668 16.5C28.6668 22.471 28.6668 25.4566 26.8119 27.3117C24.9568 29.1666 21.9712 29.1666 16.0002 29.1666C10.029 29.1666 7.04348 29.1666 5.18848 27.3117C3.3335 25.4566 3.3335 22.471 3.3335 16.5Z" stroke="white" stroke-width="1.5" stroke-linejoin="round"/>
<path d="M22.6668 12.1667C23.2191 12.1667 23.6668 11.719 23.6668 11.1667C23.6668 10.6144 23.2191 10.1667 22.6668 10.1667V12.1667ZM15.0002 29.1667C15.0002 29.719 15.4479 30.1667 16.0002 30.1667C16.5524 30.1667 17.0002 29.719 17.0002 29.1667H15.0002ZM13.3335 18.1667C12.7812 18.1667 12.3335 18.6144 12.3335 19.1667C12.3335 19.719 12.7812 20.1667 13.3335 20.1667V18.1667ZM20.0002 20.1667C20.5524 20.1667 21.0002 19.719 21.0002 19.1667C21.0002 18.6144 20.5524 18.1667 20.0002 18.1667V20.1667ZM22.6668 10.1667H21.3335V12.1667H22.6668V10.1667ZM15.0002 16.5V29.1667H17.0002V16.5H15.0002ZM21.3335 10.1667C20.1047 10.1667 19.0824 10.1646 18.2742 10.2732C17.4371 10.3858 16.6814 10.6333 16.0742 11.2406L17.4883 12.6549C17.662 12.4811 17.9254 12.3381 18.5407 12.2554C19.1847 12.1688 20.0482 12.1667 21.3335 12.1667V10.1667ZM17.0002 16.5C17.0002 15.2147 17.0023 14.3512 17.0888 13.7072C17.1716 13.0919 17.3146 12.8286 17.4883 12.6549L16.0742 11.2406C15.4668 11.8479 15.2192 12.6037 15.1067 13.4407C14.998 14.249 15.0002 15.2712 15.0002 16.5H17.0002ZM13.3335 20.1667H20.0002V18.1667H13.3335V20.1667Z" fill="white"/>
</svg>
