<svg width="32" height="33" viewBox="0 0 32 33" fill="none" xmlns="http://www.w3.org/2000/svg">
<path d="M11.8099 17.1748C8.49201 14.6941 6.12752 11.9655 4.83645 10.4316C4.4368 9.95671 4.30584 9.6092 4.22711 8.99707C3.95748 6.90107 3.82268 5.85307 4.43727 5.17653C5.05187 4.5 6.13872 4.5 8.31244 4.5H23.6876C25.8613 4.5 26.9481 4.5 27.5627 5.17653C28.1773 5.85307 28.0425 6.90107 27.7729 8.99708C27.6941 9.60921 27.5632 9.95672 27.1635 10.4316C25.8707 11.9675 23.5015 14.7009 20.1768 17.1847C19.876 17.4095 19.6777 17.7756 19.6409 18.1819C19.3116 21.8227 19.0079 23.8168 18.8188 24.8256C18.5137 26.4543 16.2043 27.4341 14.968 28.3084C14.2321 28.8288 13.3391 28.2093 13.2437 27.4037C13.0619 25.8681 12.7195 22.7485 12.3457 18.1819C12.3121 17.7719 12.1131 17.4015 11.8099 17.1748Z" stroke="#141B34" stroke-width="1.5" stroke-linecap="round" stroke-linejoin="round"/>
</svg>
