<svg width="32" height="33" viewBox="0 0 32 33" fill="none" xmlns="http://www.w3.org/2000/svg">
<path d="M4 9.83331H8" stroke="#53A0B1" stroke-width="1.5" stroke-linecap="round" stroke-linejoin="round"/>
<path d="M4 23.1667H12" stroke="#53A0B1" stroke-width="1.5" stroke-linecap="round" stroke-linejoin="round"/>
<path d="M24 23.1667H28" stroke="#53A0B1" stroke-width="1.5" stroke-linecap="round" stroke-linejoin="round"/>
<path d="M20 9.83331H28" stroke="#53A0B1" stroke-width="1.5" stroke-linecap="round" stroke-linejoin="round"/>
<path d="M8 9.83331C8 8.59081 8 7.96955 8.20299 7.47949C8.47364 6.82609 8.99277 6.30695 9.64617 6.0363C10.1362 5.83331 10.7575 5.83331 12 5.83331C13.2425 5.83331 13.8637 5.83331 14.3539 6.0363C15.0072 6.30695 15.5264 6.82609 15.7971 7.47949C16 7.96955 16 8.59081 16 9.83331C16 11.0758 16 11.6971 15.7971 12.1871C15.5264 12.8405 15.0072 13.3597 14.3539 13.6303C13.8637 13.8333 13.2425 13.8333 12 13.8333C10.7575 13.8333 10.1362 13.8333 9.64617 13.6303C8.99277 13.3597 8.47364 12.8405 8.20299 12.1871C8 11.6971 8 11.0758 8 9.83331Z" stroke="#53A0B1" stroke-width="1.5"/>
<path d="M16 23.1667C16 21.9242 16 21.303 16.2029 20.8128C16.4736 20.1595 16.9928 19.6403 17.6461 19.3696C18.1363 19.1667 18.7575 19.1667 20 19.1667C21.2425 19.1667 21.8637 19.1667 22.3539 19.3696C23.0072 19.6403 23.5264 20.1595 23.7971 20.8128C24 21.303 24 21.9242 24 23.1667C24 24.4092 24 25.0304 23.7971 25.5206C23.5264 26.1739 23.0072 26.6931 22.3539 26.9638C21.8637 27.1667 21.2425 27.1667 20 27.1667C18.7575 27.1667 18.1363 27.1667 17.6461 26.9638C16.9928 26.6931 16.4736 26.1739 16.2029 25.5206C16 25.0304 16 24.4092 16 23.1667Z" stroke="#53A0B1" stroke-width="1.5"/>
</svg>
