<svg width="25" height="25" viewBox="0 0 25 25" fill="none" xmlns="http://www.w3.org/2000/svg">
<path d="M14.5 14.5L17 17" stroke="white" stroke-width="1.5" stroke-linejoin="round"/>
<path d="M16.9333 19.0252C16.3556 18.4475 16.3556 17.5109 16.9333 16.9333C17.5109 16.3556 18.4475 16.3556 19.0252 16.9333L22.0667 19.9748C22.6444 20.5525 22.6444 21.4891 22.0667 22.0667C21.4891 22.6444 20.5525 22.6444 19.9748 22.0667L16.9333 19.0252Z" stroke="white" stroke-width="1.5" stroke-linecap="round"/>
<path d="M16.5 9.5C16.5 5.63401 13.366 2.5 9.5 2.5C5.63401 2.5 2.5 5.63401 2.5 9.5C2.5 13.366 5.63401 16.5 9.5 16.5C13.366 16.5 16.5 13.366 16.5 9.5Z" stroke="white" stroke-width="1.5" stroke-linejoin="round"/>
</svg>
