<svg width="25" height="25" viewBox="0 0 25 25" fill="none" xmlns="http://www.w3.org/2000/svg">
<path d="M16.8083 4.88394C16.2173 4.88394 15.9217 4.88394 15.6525 4.78405C15.6151 4.77017 15.5783 4.75491 15.542 4.73828C15.281 4.61855 15.0721 4.40959 14.6541 3.99167C13.6922 3.02977 13.2113 2.54882 12.6195 2.50447C12.54 2.49851 12.46 2.49851 12.3805 2.50447C11.7887 2.54882 11.3077 3.02977 10.3458 3.99166C9.92793 4.40959 9.71897 4.61855 9.45797 4.73828C9.42172 4.75491 9.38486 4.77017 9.34747 4.78405C9.07825 4.88394 8.78273 4.88394 8.19171 4.88394H8.08269C6.57478 4.88394 5.82083 4.88394 5.35239 5.35239C4.88394 5.82083 4.88394 6.57478 4.88394 8.08269V8.19171C4.88394 8.78273 4.88394 9.07825 4.78405 9.34747C4.77017 9.38486 4.75491 9.42172 4.73828 9.45797C4.61855 9.71897 4.40959 9.92793 3.99166 10.3458C3.02977 11.3077 2.54882 11.7887 2.50447 12.3805C2.49851 12.46 2.49851 12.54 2.50447 12.6195C2.54882 13.2113 3.02977 13.6922 3.99166 14.6541C4.40959 15.0721 4.61855 15.281 4.73828 15.542C4.75491 15.5783 4.77017 15.6151 4.78405 15.6525C4.88394 15.9217 4.88394 16.2173 4.88394 16.8083V16.9173C4.88394 18.4252 4.88394 19.1792 5.35239 19.6476C5.82083 20.1161 6.57478 20.1161 8.08269 20.1161H8.19171C8.78273 20.1161 9.07825 20.1161 9.34747 20.2159C9.38486 20.2298 9.42172 20.2451 9.45797 20.2617C9.71897 20.3815 9.92793 20.5904 10.3458 21.0083C11.3077 21.9702 11.7887 22.4512 12.3805 22.4955C12.46 22.5015 12.54 22.5015 12.6195 22.4955C13.2113 22.4512 13.6922 21.9702 14.6541 21.0083C15.0721 20.5904 15.281 20.3815 15.542 20.2617C15.5783 20.2451 15.6151 20.2298 15.6525 20.2159C15.9217 20.1161 16.2173 20.1161 16.8083 20.1161H16.9173C18.4252 20.1161 19.1792 20.1161 19.6476 19.6476C20.1161 19.1792 20.1161 18.4252 20.1161 16.9173V16.8083C20.1161 16.2173 20.1161 15.9217 20.2159 15.6525C20.2298 15.6151 20.2451 15.5783 20.2617 15.542C20.3815 15.281 20.5904 15.0721 21.0083 14.6541C21.9702 13.6922 22.4512 13.2113 22.4955 12.6195C22.5015 12.54 22.5015 12.46 22.4955 12.3805C22.4512 11.7887 21.9702 11.3077 21.0083 10.3458C20.5904 9.92793 20.3815 9.71897 20.2617 9.45797C20.2451 9.42172 20.2298 9.38486 20.2159 9.34747C20.1161 9.07825 20.1161 8.78273 20.1161 8.19171V8.08269C20.1161 6.57478 20.1161 5.82083 19.6476 5.35239C19.1792 4.88394 18.4252 4.88394 16.9173 4.88394H16.8083Z" stroke="#53A0B1" stroke-width="1.5"/>
<path d="M12.7422 16.5V12.5C12.7422 12.0286 12.7422 11.7929 12.5957 11.6464C12.4493 11.5 12.2136 11.5 11.7422 11.5" stroke="#53A0B1" stroke-width="1.5" stroke-linecap="round" stroke-linejoin="round"/>
<path d="M12.4922 8.5H12.5012" stroke="#53A0B1" stroke-width="2" stroke-linecap="round" stroke-linejoin="round"/>
</svg>
