<svg width="32" height="33" viewBox="0 0 32 33" fill="none" xmlns="http://www.w3.org/2000/svg">
<path d="M3.3335 16.5C3.3335 10.5289 3.3335 7.5433 5.18848 5.6883C7.04348 3.83331 10.029 3.83331 16.0002 3.83331C21.9712 3.83331 24.9568 3.83331 26.8119 5.6883C28.6668 7.5433 28.6668 10.5289 28.6668 16.5C28.6668 22.471 28.6668 25.4566 26.8119 27.3117C24.9568 29.1666 21.9712 29.1666 16.0002 29.1666C10.029 29.1666 7.04348 29.1666 5.18848 27.3117C3.3335 25.4566 3.3335 22.471 3.3335 16.5Z" stroke="#53A0B1" stroke-width="1.5" stroke-linejoin="round"/>
<path d="M22 16.5C22 19.8137 19.3137 22.5 16 22.5C12.6863 22.5 10 19.8137 10 16.5C10 13.1863 12.6863 10.5 16 10.5C19.3137 10.5 22 13.1863 22 16.5Z" stroke="#53A0B1" stroke-width="1.5"/>
<path d="M23.3435 9.16669H23.3315" stroke="#53A0B1" stroke-width="2" stroke-linecap="round" stroke-linejoin="round"/>
</svg>
