<svg width="32" height="32" viewBox="0 0 32 32" fill="none" xmlns="http://www.w3.org/2000/svg">
<path d="M2.66699 8L11.8844 13.2226C15.2825 15.148 16.7182 15.148 20.1163 13.2226L29.3337 8" stroke="#141B34" stroke-width="1.5" stroke-linejoin="round"/>
<path d="M2.68802 17.9673C2.77518 22.0548 2.81877 24.0984 4.32694 25.6124C5.8351 27.1262 7.9341 27.1789 12.1321 27.2844C14.7194 27.3494 17.2813 27.3494 19.8686 27.2844C24.0666 27.1789 26.1655 27.1262 27.6738 25.6124C29.1819 24.0984 29.2255 22.0548 29.3126 17.9673C29.3407 16.653 29.3407 15.3466 29.3126 14.0324C29.2255 9.94498 29.1819 7.90129 27.6738 6.38739C26.1655 4.87348 24.0666 4.82075 19.8686 4.71527C17.2813 4.65025 14.7194 4.65025 12.1321 4.71525C7.9341 4.82072 5.8351 4.87345 4.32693 6.38737C2.81875 7.90128 2.77518 9.94497 2.68801 14.0324C2.65998 15.3466 2.65999 16.653 2.68802 17.9673Z" stroke="#141B34" stroke-width="1.5" stroke-linejoin="round"/>
</svg>
