<svg width="41" height="40" viewBox="0 0 41 40" fill="none" xmlns="http://www.w3.org/2000/svg">
<path d="M11.4626 25.8027C9.10467 27.2067 2.92227 30.0735 6.68777 33.661C8.52719 35.4134 10.5758 36.6667 13.1515 36.6667H27.8485C30.4242 36.6667 32.4728 35.4134 34.3122 33.661C38.0777 30.0735 31.8953 27.2067 29.5373 25.8027C24.008 22.5102 16.992 22.5102 11.4626 25.8027Z" stroke="#141B34" stroke-width="1.5" stroke-linecap="round" stroke-linejoin="round"/>
<path d="M28 10.8333C28 14.9754 24.6422 18.3333 20.5 18.3333C16.3579 18.3333 13 14.9754 13 10.8333C13 6.69118 16.3579 3.33331 20.5 3.33331C24.6422 3.33331 28 6.69118 28 10.8333Z" stroke="#141B34" stroke-width="1.5"/>
</svg>
