<svg width="51" height="51" viewBox="0 0 51 51" fill="none" xmlns="http://www.w3.org/2000/svg">
<path d="M20.2915 45.6771C21.9561 46.1054 23.7015 46.3333 25.4998 46.3333C37.0057 46.3333 46.3332 37.0058 46.3332 25.5C46.3332 13.9941 37.0057 4.66669 25.4998 4.66669C13.9939 4.66669 4.6665 13.9941 4.6665 25.5C4.6665 26.2031 4.70134 26.8981 4.76938 27.5833" stroke="#8F8C8C" stroke-width="1.5" stroke-linecap="round" stroke-linejoin="round"/>
<path d="M10.9603 29.6667L6.45851 34.0054C4.04089 36.3759 4.0826 40.1923 6.50024 42.5223C8.95957 44.8525 12.9195 44.8123 15.3371 42.4823C17.7964 40.1119 17.7548 36.2954 15.3371 33.9652L10.9603 29.6667Z" stroke="#8F8C8C" stroke-width="1.5" stroke-linejoin="round"/>
<path d="M17.1857 18.0883H17.167M33.8337 18.0883H33.8149" stroke="#8F8C8C" stroke-width="2" stroke-linecap="round" stroke-linejoin="round"/>
<path d="M31.7503 33.8333C30.0095 32.5252 27.8453 31.75 25.5003 31.75C23.603 31.75 21.8241 32.2575 20.292 33.1442" stroke="#8F8C8C" stroke-width="1.5" stroke-linecap="round" stroke-linejoin="round"/>
</svg>
