<svg width="32" height="33" viewBox="0 0 32 33" fill="none" xmlns="http://www.w3.org/2000/svg">
<path d="M3.3335 16.5C3.3335 10.5289 3.3335 7.5433 5.18848 5.6883C7.04348 3.83331 10.029 3.83331 16.0002 3.83331C21.9712 3.83331 24.9568 3.83331 26.8119 5.6883C28.6668 7.5433 28.6668 10.5289 28.6668 16.5C28.6668 22.471 28.6668 25.4566 26.8119 27.3117C24.9568 29.1666 21.9712 29.1666 16.0002 29.1666C10.029 29.1666 7.04348 29.1666 5.18848 27.3117C3.3335 25.4566 3.3335 22.471 3.3335 16.5Z" stroke="#53A0B1" stroke-width="1.5" stroke-linejoin="round"/>
<path d="M13.8582 16.2039C14.4049 16.282 14.9116 15.9023 14.9897 15.3555C15.068 14.8088 14.6881 14.3023 14.1414 14.224L13.8582 16.2039ZM23.3332 14.1667C23.8854 14.1667 24.3332 13.7189 24.3332 13.1667C24.3332 12.6144 23.8854 12.1667 23.3332 12.1667V14.1667ZM18.9998 8.5C18.9998 7.94772 18.5521 7.5 17.9998 7.5C17.4476 7.5 16.9998 7.94772 16.9998 8.5H18.9998ZM16.9998 19.8333C16.9998 21.8584 15.3582 23.5 13.3332 23.5V25.5C16.4628 25.5 18.9998 22.9629 18.9998 19.8333H16.9998ZM13.3332 23.5C11.3081 23.5 9.6665 21.8584 9.6665 19.8333H7.6665C7.6665 22.9629 10.2036 25.5 13.3332 25.5V23.5ZM9.6665 19.8333C9.6665 17.8083 11.3081 16.1667 13.3332 16.1667V14.1667C10.2036 14.1667 7.6665 16.7037 7.6665 19.8333H9.6665ZM13.3332 16.1667C13.512 16.1667 13.6873 16.1793 13.8582 16.2039L14.1414 14.224C13.8769 14.1861 13.607 14.1667 13.3332 14.1667V16.1667ZM23.3332 12.1667C22.3004 12.1667 21.1897 11.7411 20.341 11.0323C19.4932 10.3243 18.9998 9.4178 18.9998 8.5H16.9998C16.9998 10.1595 17.8845 11.5864 19.059 12.5674C20.2326 13.5476 21.7886 14.1667 23.3332 14.1667V12.1667ZM16.9998 8.5V19.8333H18.9998V8.5H16.9998Z" fill="#53A0B1"/>
</svg>
