<svg width="25" height="25" viewBox="0 0 25 25" fill="none" xmlns="http://www.w3.org/2000/svg">
<path d="M2.5 11.5C2.5 8.20017 2.5 6.55025 3.52513 5.52513C4.55025 4.5 6.20017 4.5 9.5 4.5H10.5C13.7998 4.5 15.4497 4.5 16.4749 5.52513C17.5 6.55025 17.5 8.20017 17.5 11.5V13.5C17.5 16.7998 17.5 18.4497 16.4749 19.4749C15.4497 20.5 13.7998 20.5 10.5 20.5H9.5C6.20017 20.5 4.55025 20.5 3.52513 19.4749C2.5 18.4497 2.5 16.7998 2.5 13.5V11.5Z" stroke="#53A0B1" stroke-width="1.5"/>
<path d="M17.5 9.40585L17.6259 9.30196C19.7417 7.55623 20.7996 6.68336 21.6498 7.10482C22.5 7.52628 22.5 8.92355 22.5 11.7181V13.2819C22.5 16.0765 22.5 17.4737 21.6498 17.8952C20.7996 18.3166 19.7417 17.4438 17.6259 15.698L17.5 15.5941" stroke="#53A0B1" stroke-width="1.5" stroke-linecap="round"/>
<path d="M12 11.5C12.8284 11.5 13.5 10.8284 13.5 10C13.5 9.17157 12.8284 8.5 12 8.5C11.1716 8.5 10.5 9.17157 10.5 10C10.5 10.8284 11.1716 11.5 12 11.5Z" stroke="#53A0B1" stroke-width="1.5"/>
</svg>
