<svg width="32" height="33" viewBox="0 0 32 33" fill="none" xmlns="http://www.w3.org/2000/svg">
<path d="M15.9998 27.8334C18.4128 27.8334 20.7266 27.595 22.871 27.1579C25.5496 26.6119 26.8889 26.3388 28.111 24.7675C29.3332 23.1962 29.3332 21.3924 29.3332 17.7847V15.2154C29.3332 11.6077 29.3332 9.80385 28.111 8.23251C26.8889 6.66119 25.5496 6.38819 22.871 5.84218C20.7266 5.40505 18.4128 5.16669 15.9998 5.16669C13.5869 5.16669 11.273 5.40505 9.12858 5.84218C6.45005 6.38819 5.11078 6.66119 3.88864 8.23251C2.6665 9.80385 2.6665 11.6077 2.6665 15.2154V17.7847C2.6665 21.3924 2.6665 23.1962 3.88864 24.7675C5.11078 26.3388 6.45005 26.6119 9.12858 27.1579C11.273 27.595 13.5869 27.8334 15.9998 27.8334Z" stroke="#53A0B1" stroke-width="1.5"/>
<path d="M21.2828 16.9172C21.0849 17.7249 20.0321 18.305 17.9265 19.4654C15.6363 20.7273 14.4912 21.3584 13.5637 21.1153C13.2496 21.0329 12.9603 20.8881 12.7173 20.6917C12 20.1118 12 18.9078 12 16.5C12 14.0921 12 12.8881 12.7173 12.3082C12.9603 12.1118 13.2496 11.967 13.5637 11.8847C14.4912 11.6416 15.6363 12.2726 17.9265 13.5346C20.0321 14.6949 21.0849 15.275 21.2828 16.0828C21.3501 16.3577 21.3501 16.6422 21.2828 16.9172Z" stroke="#53A0B1" stroke-width="1.5" stroke-linejoin="round"/>
</svg>
